<mxfile host="app.diagrams.net" modified="2024-05-16T20:32:09.107Z" agent="Mozilla/5.0 (Windows NT 10.0; Win64; x64) AppleWebKit/537.36 (KHTML, like Gecko) Chrome/124.0.0.0 Safari/537.36" version="24.3.1" etag="lsDCu1gboTkEJ4dNhoMf" type="github">
  <diagram name="Page-1" id="h3EKc4NckOlihVWzpMQ7">
    <mxGraphModel>
      <root>
        <mxCell id="0" />
        <mxCell id="1" parent="0" />
      </root>
    </mxGraphModel>
  </diagram>
</mxfile>
